<svg xmlns="http://www.w3.org/2000/svg" xmlns:xlink="http://www.w3.org/1999/xlink" preserveAspectRatio="xMidYMid" width="151" height="38" viewBox="0 0 151 38">
  <defs>
    <style>
      .cls-1 {
        fill: #434f74;
      }

      .cls-1, .cls-2 {
        fill-rule: evenodd;
      }

      .cls-2 {
        fill: #fa2276;
      }
    </style>
  </defs>
  <g>
    <path d="M111.798,17.807 C111.521,18.076 111.174,18.210 110.758,18.210 L108.912,18.210 L108.912,25.256 C108.912,25.620 109.007,25.884 109.198,26.049 C109.389,26.214 109.649,26.296 109.978,26.296 C110.117,26.296 110.307,26.261 110.550,26.192 C110.758,26.105 110.957,26.062 111.148,26.062 C111.391,26.062 111.612,26.179 111.811,26.413 C112.010,26.647 112.110,26.955 112.110,27.336 C112.110,27.804 111.854,28.198 111.343,28.519 C110.832,28.840 110.255,29.000 109.614,29.000 C108.539,29.000 107.634,28.770 106.897,28.311 C106.160,27.852 105.792,26.877 105.792,25.386 L105.792,18.210 L104.596,18.210 C104.180,18.210 103.833,18.071 103.556,17.794 C103.279,17.517 103.140,17.170 103.140,16.754 C103.140,16.355 103.279,16.022 103.556,15.753 C103.833,15.484 104.180,15.350 104.596,15.350 L105.792,15.350 L105.792,13.686 C105.792,13.235 105.944,12.858 106.247,12.555 C106.550,12.252 106.927,12.100 107.378,12.100 C107.811,12.100 108.175,12.252 108.470,12.555 C108.765,12.858 108.912,13.235 108.912,13.686 L108.912,15.350 L110.758,15.350 C111.174,15.350 111.521,15.489 111.798,15.766 C112.075,16.043 112.214,16.390 112.214,16.806 C112.214,17.205 112.075,17.538 111.798,17.807 ZM100.442,13.400 C99.853,13.400 99.437,13.305 99.194,13.114 C98.951,12.923 98.830,12.585 98.830,12.100 L98.830,11.606 C98.830,11.121 98.960,10.783 99.220,10.592 C99.480,10.401 99.896,10.306 100.468,10.306 C101.075,10.306 101.499,10.401 101.742,10.592 C101.985,10.783 102.106,11.121 102.106,11.606 L102.106,12.100 C102.106,12.603 101.980,12.945 101.729,13.127 C101.478,13.309 101.049,13.400 100.442,13.400 ZM97.322,27.466 C97.322,27.899 97.157,28.272 96.828,28.584 C96.499,28.896 96.135,29.052 95.736,29.052 C95.233,29.052 94.809,28.827 94.462,28.376 L91.342,24.502 L88.300,28.376 C88.144,28.584 87.958,28.744 87.741,28.857 C87.524,28.970 87.295,29.026 87.052,29.026 C86.688,29.026 86.341,28.887 86.012,28.610 C85.683,28.333 85.518,28.012 85.518,27.648 C85.518,27.301 85.648,26.972 85.908,26.660 L89.522,22.240 L85.778,17.586 C85.553,17.309 85.440,16.997 85.440,16.650 C85.440,16.217 85.600,15.848 85.921,15.545 C86.242,15.242 86.610,15.090 87.026,15.090 C87.529,15.090 87.953,15.307 88.300,15.740 L91.498,19.718 L94.462,15.792 C94.791,15.324 95.207,15.090 95.710,15.090 C96.126,15.090 96.477,15.233 96.763,15.519 C97.049,15.805 97.192,16.130 97.192,16.494 C97.192,16.875 97.071,17.213 96.828,17.508 L93.240,21.876 L96.984,26.530 C97.209,26.807 97.322,27.119 97.322,27.466 ZM83.284,23.124 L74.704,23.124 C74.912,24.147 75.389,24.948 76.134,25.529 C76.879,26.110 77.720,26.400 78.656,26.400 C79.367,26.400 79.921,26.335 80.320,26.205 C80.719,26.075 81.035,25.936 81.269,25.789 C81.503,25.642 81.663,25.542 81.750,25.490 C82.062,25.334 82.357,25.256 82.634,25.256 C82.998,25.256 83.310,25.386 83.570,25.646 C83.830,25.906 83.960,26.209 83.960,26.556 C83.960,27.024 83.717,27.449 83.232,27.830 C82.747,28.229 82.097,28.567 81.282,28.844 C80.467,29.121 79.644,29.260 78.812,29.260 C77.356,29.260 76.086,28.957 75.003,28.350 C73.920,27.743 73.083,26.907 72.494,25.841 C71.905,24.775 71.610,23.575 71.610,22.240 C71.610,20.749 71.922,19.441 72.546,18.314 C73.170,17.187 73.993,16.325 75.016,15.727 C76.039,15.129 77.131,14.830 78.292,14.830 C79.436,14.830 80.515,15.142 81.529,15.766 C82.543,16.390 83.353,17.231 83.960,18.288 C84.567,19.345 84.870,20.489 84.870,21.720 C84.853,22.136 84.688,22.474 84.376,22.734 C84.064,22.994 83.700,23.124 83.284,23.124 ZM81.542,20.342 C81.473,19.614 81.117,18.990 80.476,18.470 C79.835,17.950 79.107,17.690 78.292,17.690 C76.281,17.690 75.094,18.635 74.730,20.524 L81.542,20.524 L81.542,20.342 ZM69.710,17.924 C69.450,17.924 69.155,17.863 68.826,17.742 C68.774,17.725 68.657,17.690 68.475,17.638 C68.293,17.586 68.098,17.560 67.890,17.560 C67.439,17.560 67.006,17.699 66.590,17.976 C66.174,18.253 65.832,18.674 65.563,19.237 C65.294,19.800 65.160,20.472 65.160,21.252 L65.160,27.414 C65.160,27.865 65.013,28.242 64.718,28.545 C64.423,28.848 64.051,29.000 63.600,29.000 C63.149,29.000 62.777,28.848 62.482,28.545 C62.187,28.242 62.040,27.865 62.040,27.414 L62.040,16.676 C62.040,16.225 62.187,15.848 62.482,15.545 C62.777,15.242 63.149,15.090 63.600,15.090 C64.051,15.090 64.423,15.242 64.718,15.545 C65.013,15.848 65.160,16.225 65.160,16.676 L65.160,17.014 C65.559,16.303 66.131,15.762 66.876,15.389 C67.621,15.016 68.419,14.830 69.268,14.830 C69.788,14.830 70.226,14.977 70.581,15.272 C70.936,15.567 71.114,15.913 71.114,16.312 C71.114,16.849 70.975,17.252 70.698,17.521 C70.421,17.790 70.091,17.924 69.710,17.924 ZM54.010,29.000 L47.536,29.000 C47.085,29.000 46.708,28.848 46.405,28.545 C46.102,28.242 45.950,27.865 45.950,27.414 L45.950,12.386 C45.950,11.935 46.102,11.558 46.405,11.255 C46.708,10.952 47.085,10.800 47.536,10.800 L54.088,10.800 C57.381,10.800 59.028,12.343 59.028,15.428 C59.028,16.208 58.842,16.897 58.469,17.495 C58.096,18.093 57.563,18.565 56.870,18.912 C57.789,19.276 58.538,19.831 59.119,20.576 C59.700,21.321 59.990,22.283 59.990,23.462 C59.990,25.525 59.401,26.963 58.222,27.778 C57.043,28.593 55.639,29.000 54.010,29.000 ZM55.115,14.401 C54.760,14.046 54.261,13.868 53.620,13.868 L49.330,13.868 L49.330,17.924 L53.698,17.924 C54.218,17.924 54.673,17.751 55.063,17.404 C55.453,17.057 55.648,16.589 55.648,16.000 C55.648,15.289 55.470,14.756 55.115,14.401 ZM55.804,21.460 C55.267,21.148 54.608,20.992 53.828,20.992 L49.330,20.992 L49.330,26.010 L54.010,26.010 C54.825,26.010 55.462,25.793 55.921,25.360 C56.380,24.927 56.610,24.294 56.610,23.462 C56.610,22.439 56.341,21.772 55.804,21.460 ZM100.468,15.090 C100.919,15.090 101.291,15.242 101.586,15.545 C101.881,15.848 102.028,16.225 102.028,16.676 L102.028,27.414 C102.028,27.865 101.881,28.242 101.586,28.545 C101.291,28.848 100.919,29.000 100.468,29.000 C100.017,29.000 99.645,28.848 99.350,28.545 C99.055,28.242 98.908,27.865 98.908,27.414 L98.908,16.676 C98.908,16.225 99.055,15.848 99.350,15.545 C99.645,15.242 100.017,15.090 100.468,15.090 Z" class="cls-1"/>
    <path d="M37.589,19.593 L34.080,20.909 C33.845,22.795 33.264,24.596 32.351,26.270 C32.236,26.480 32.019,26.600 31.795,26.600 C31.693,26.600 31.589,26.575 31.492,26.523 C31.185,26.355 31.072,25.970 31.239,25.663 C32.133,24.023 32.680,22.249 32.864,20.389 C32.888,20.149 33.046,19.943 33.272,19.859 L35.563,19.000 L33.272,18.141 C33.046,18.056 32.888,17.850 32.864,17.610 C32.213,11.033 26.967,5.787 20.389,5.135 C20.149,5.112 19.944,4.954 19.859,4.728 L19.000,2.437 L18.141,4.728 C18.056,4.954 17.850,5.112 17.610,5.136 C15.750,5.320 13.975,5.867 12.336,6.761 C12.029,6.930 11.644,6.816 11.477,6.509 C11.309,6.201 11.422,5.817 11.729,5.649 C13.403,4.736 15.204,4.155 17.091,3.920 L18.406,0.411 C18.500,0.164 18.736,-0.000 19.000,-0.000 C19.264,-0.000 19.500,0.164 19.593,0.411 L20.909,3.920 C27.768,4.780 33.220,10.231 34.080,17.091 L37.589,18.406 C37.836,18.500 38.000,18.736 38.000,19.000 C38.000,19.264 37.836,19.500 37.589,19.593 ZM18.367,8.233 L18.367,7.617 C17.138,7.684 15.941,7.946 14.800,8.399 C14.474,8.527 14.107,8.368 13.978,8.043 C13.849,7.718 14.008,7.350 14.333,7.221 C15.819,6.632 17.389,6.333 19.000,6.333 C19.349,6.333 19.633,6.617 19.633,6.967 L19.633,8.233 C19.633,8.583 19.349,8.867 19.000,8.867 C18.650,8.867 18.367,8.583 18.367,8.233 ZM30.682,23.903 C30.580,24.145 30.346,24.291 30.098,24.291 C30.016,24.291 29.933,24.276 29.853,24.241 C29.530,24.106 29.379,23.735 29.515,23.412 C29.785,22.768 29.998,22.091 30.147,21.400 C30.220,21.058 30.557,20.841 30.900,20.914 C31.242,20.988 31.459,21.324 31.385,21.666 C31.219,22.434 30.983,23.187 30.682,23.903 ZM21.401,7.853 C21.058,7.780 20.840,7.443 20.914,7.101 C20.987,6.760 21.324,6.543 21.666,6.614 C27.461,7.856 31.667,13.066 31.667,19.000 C31.667,19.349 31.383,19.633 31.033,19.633 L29.767,19.633 C29.417,19.633 29.133,19.349 29.133,19.000 C29.133,18.650 29.417,18.367 29.767,18.367 L30.382,18.367 C30.097,13.292 26.408,8.926 21.401,7.853 ZM22.699,15.491 L34.099,33.224 C34.261,33.475 34.225,33.803 34.014,34.014 C33.892,34.137 33.730,34.200 33.567,34.200 C33.448,34.200 33.329,34.167 33.224,34.099 L15.491,22.699 C15.415,22.650 15.349,22.585 15.301,22.509 L3.901,4.775 C3.739,4.525 3.775,4.196 3.985,3.986 C4.196,3.774 4.525,3.739 4.776,3.901 L22.509,15.300 C22.585,15.349 22.651,15.414 22.699,15.491 ZM6.542,6.542 L16.292,21.708 L31.458,31.458 L21.708,16.291 L6.542,6.542 ZM19.000,21.533 C17.603,21.533 16.467,20.397 16.467,19.000 C16.467,17.603 17.603,16.467 19.000,16.467 C20.397,16.467 21.533,17.603 21.533,19.000 C21.533,20.397 20.397,21.533 19.000,21.533 ZM19.000,17.733 C18.301,17.733 17.733,18.301 17.733,19.000 C17.733,19.699 18.301,20.267 19.000,20.267 C19.698,20.267 20.267,19.699 20.267,19.000 C20.267,18.301 19.698,17.733 19.000,17.733 ZM7.235,17.100 C7.191,17.100 7.146,17.096 7.101,17.086 C6.759,17.012 6.541,16.676 6.614,16.334 C6.779,15.571 7.015,14.818 7.318,14.097 C7.453,13.774 7.824,13.622 8.147,13.758 C8.470,13.894 8.621,14.264 8.485,14.588 C8.213,15.237 8.000,15.913 7.853,16.600 C7.789,16.897 7.527,17.100 7.235,17.100 ZM16.599,30.147 C16.942,30.220 17.160,30.557 17.086,30.899 C17.022,31.196 16.759,31.399 16.467,31.399 C16.424,31.399 16.379,31.395 16.334,31.385 C10.539,30.143 6.333,24.934 6.333,19.000 C6.333,18.650 6.617,18.367 6.967,18.367 L8.233,18.367 C8.583,18.367 8.867,18.650 8.867,19.000 C8.867,19.349 8.583,19.633 8.233,19.633 L7.618,19.633 C7.903,24.708 11.592,29.074 16.599,30.147 ZM19.000,31.667 C18.650,31.667 18.367,31.383 18.367,31.033 L18.367,29.767 C18.367,29.417 18.650,29.133 19.000,29.133 C19.349,29.133 19.633,29.417 19.633,29.767 L19.633,30.383 C20.861,30.316 22.059,30.054 23.200,29.601 C23.526,29.471 23.893,29.631 24.022,29.956 C24.151,30.281 23.992,30.649 23.667,30.779 C22.181,31.368 20.611,31.667 19.000,31.667 ZM5.649,11.730 C5.817,11.423 6.201,11.310 6.509,11.477 C6.816,11.645 6.929,12.029 6.761,12.337 C5.866,13.976 5.320,15.751 5.136,17.610 C5.112,17.850 4.954,18.056 4.728,18.141 L2.437,19.000 L4.728,19.859 C4.954,19.944 5.112,20.150 5.136,20.389 C5.787,26.967 11.033,32.213 17.610,32.864 C17.850,32.888 18.056,33.046 18.141,33.272 L19.000,35.563 L19.859,33.272 C19.944,33.046 20.149,32.888 20.389,32.864 C22.250,32.680 24.024,32.133 25.663,31.238 C25.971,31.071 26.355,31.185 26.523,31.491 C26.690,31.798 26.577,32.183 26.270,32.351 C24.597,33.263 22.796,33.845 20.909,34.080 L19.593,37.589 C19.500,37.836 19.264,38.000 19.000,38.000 C18.736,38.000 18.500,37.836 18.407,37.589 L17.091,34.080 C10.231,33.219 4.780,27.768 3.920,20.909 L0.411,19.593 C0.164,19.500 -0.000,19.264 -0.000,19.000 C-0.000,18.736 0.164,18.500 0.411,18.406 L3.920,17.091 C4.155,15.205 4.736,13.403 5.649,11.730 Z" class="cls-2"/>
  </g>
</svg>
